<svg xmlns="http://www.w3.org/2000/svg" viewBox="80 46 340 380">
  <!-- Building 1 - back left, tallest -->
  <rect x="100" y="96" width="100" height="320" rx="6" fill="#39d353"/>
  <rect x="146" y="56" width="8" height="40" fill="#4ADE80" opacity="0.6"/>
  <circle cx="150" cy="52" r="5" fill="#fef08a" opacity="0.5"/>

  <!-- Building 2 - back right, medium -->
  <rect x="296" y="184" width="108" height="232" rx="6" fill="#26a641"/>
  <rect x="320" y="172" width="60" height="12" rx="3" fill="#2dd44e"/>

  <!-- Building 3 - front center -->
  <rect x="180" y="228" width="120" height="188" rx="6" fill="#4ADE80"/>
  <rect x="252" y="208" width="28" height="20" rx="4" fill="#5aeea0"/>
  <rect x="262" y="198" width="8" height="10" fill="#5aeea0" opacity="0.7"/>

  <!-- Windows - building 1 -->
  <rect x="118" y="120" width="16" height="16" rx="3" fill="#fef08a" opacity="0.8"/>
  <rect x="150" y="120" width="16" height="16" rx="3" fill="#fef08a" opacity="0.5"/>
  <rect x="118" y="156" width="16" height="16" rx="3" fill="#fef08a" opacity="0.5"/>
  <rect x="150" y="156" width="16" height="16" rx="3" fill="#fef08a" opacity="0.8"/>
  <rect x="118" y="192" width="16" height="16" rx="3" fill="#fef08a" opacity="0.7"/>
  <rect x="150" y="192" width="16" height="16" rx="3" fill="#fef08a" opacity="0.4"/>
  <rect x="118" y="264" width="16" height="16" rx="3" fill="#fef08a" opacity="0.8"/>
  <rect x="118" y="300" width="16" height="16" rx="3" fill="#fef08a" opacity="0.5"/>
  <rect x="118" y="336" width="16" height="16" rx="3" fill="#fef08a" opacity="0.7"/>
  <rect x="118" y="372" width="16" height="16" rx="3" fill="#fef08a" opacity="0.8"/>

  <!-- Windows - building 2 -->
  <rect x="314" y="208" width="16" height="16" rx="3" fill="#fef08a" opacity="0.7"/>
  <rect x="346" y="208" width="16" height="16" rx="3" fill="#fef08a" opacity="0.8"/>
  <rect x="378" y="208" width="16" height="16" rx="3" fill="#fef08a" opacity="0.5"/>
  <rect x="314" y="244" width="16" height="16" rx="3" fill="#fef08a" opacity="0.8"/>
  <rect x="346" y="244" width="16" height="16" rx="3" fill="#fef08a" opacity="0.4"/>
  <rect x="378" y="244" width="16" height="16" rx="3" fill="#fef08a" opacity="0.7"/>
  <rect x="314" y="280" width="16" height="16" rx="3" fill="#fef08a" opacity="0.5"/>
  <rect x="346" y="280" width="16" height="16" rx="3" fill="#fef08a" opacity="0.8"/>
  <rect x="378" y="280" width="16" height="16" rx="3" fill="#fef08a" opacity="0.6"/>
  <rect x="314" y="316" width="16" height="16" rx="3" fill="#fef08a" opacity="0.7"/>
  <rect x="346" y="316" width="16" height="16" rx="3" fill="#fef08a" opacity="0.5"/>
  <rect x="378" y="316" width="16" height="16" rx="3" fill="#fef08a" opacity="0.8"/>
  <rect x="314" y="352" width="16" height="16" rx="3" fill="#fef08a" opacity="0.8"/>
  <rect x="346" y="352" width="16" height="16" rx="3" fill="#fef08a" opacity="0.6"/>
  <rect x="378" y="352" width="16" height="16" rx="3" fill="#fef08a" opacity="0.4"/>
  <rect x="314" y="388" width="16" height="16" rx="3" fill="#fef08a" opacity="0.5"/>
  <rect x="346" y="388" width="16" height="16" rx="3" fill="#fef08a" opacity="0.8"/>
  <rect x="378" y="388" width="16" height="16" rx="3" fill="#fef08a" opacity="0.7"/>

  <!-- Windows - building 3 -->
  <rect x="200" y="252" width="18" height="18" rx="3" fill="#fef08a" opacity="0.8"/>
  <rect x="234" y="252" width="18" height="18" rx="3" fill="#fef08a" opacity="0.5"/>
  <rect x="268" y="252" width="18" height="18" rx="3" fill="#fef08a" opacity="0.7"/>
  <rect x="200" y="290" width="18" height="18" rx="3" fill="#fef08a" opacity="0.5"/>
  <rect x="234" y="290" width="18" height="18" rx="3" fill="#fef08a" opacity="0.8"/>
  <rect x="268" y="290" width="18" height="18" rx="3" fill="#fef08a" opacity="0.4"/>
  <rect x="200" y="328" width="18" height="18" rx="3" fill="#fef08a" opacity="0.7"/>
  <rect x="234" y="328" width="18" height="18" rx="3" fill="#fef08a" opacity="0.4"/>
  <rect x="268" y="328" width="18" height="18" rx="3" fill="#fef08a" opacity="0.8"/>
  <rect x="200" y="366" width="18" height="18" rx="3" fill="#fef08a" opacity="0.8"/>
  <rect x="234" y="366" width="18" height="18" rx="3" fill="#fef08a" opacity="0.7"/>
  <rect x="268" y="366" width="18" height="18" rx="3" fill="#fef08a" opacity="0.5"/>
</svg>